# xmcd
#
# Track frame offsets: 
#        150
#        20931
#        32913
#        47994
#        66794
#        83641
#        110399
#        126291
#        144284
#        166144
#        177691
#
# Disc length: 2529 seconds
#
# Revision: 13
# Processed by: cddbd v1.5.2PL0 Copyright (c) Steve Scherf et al.
# Submitted via: ExactAudioCopyFreeDBPlugin 1.0
#
DISCID=9a09df0b
DTITLE=Dixie Chicks - Top Of The World Tour - Live [CD1]
DYEAR=2003
DGENRE=Country
TTITLE0=Goodbye Earl
TTITLE1=Some Days You Gotta Dance
TTITLE2=There's Your Trouble
TTITLE3=Long Time Gone
TTITLE4=Tortured, Tangled Hearts
TTITLE5=Travelin' Soldier
TTITLE6=Am I The Only One (Who's Ever Felt This Way)
TTITLE7=Hello Mr. Heartache
TTITLE8=Cold Day In July
TTITLE9=White Trash Wedding
TTITLE10=Lil' Jack Slade
EXTD=YEAR: 2003 ID3G: 2\ncorrected tracks artist
EXTT0=
EXTT1=
EXTT2=
EXTT3=
EXTT4=
EXTT5=
EXTT6=
EXTT7=
EXTT8=
EXTT9=
EXTT10=
PLAYORDER=
